<svg width="28" height="35" viewBox="0 0 28 35" fill="none" xmlns="http://www.w3.org/2000/svg">
<path d="M19.2438 8.23953C19.1794 6.94199 18.6351 5.71087 17.7121 4.78787C16.7276 3.80331 15.3922 3.24979 13.9998 3.24979C12.6075 3.24982 11.2721 3.80333 10.2875 4.78787C9.30304 5.77243 8.75009 7.10785 8.75009 8.50018H19.2502L19.2438 8.23953ZM3.4997 32.125H24.5V11.1247H21.8748V16.3751H19.2502V11.1247H8.75009V16.3751H6.12489V11.1247H3.4997V32.125ZM25.8122 8.50018C26.5371 8.50018 27.1251 9.08761 27.1251 9.81245V33.4373C27.1251 34.1621 26.5371 34.7502 25.8122 34.7502H2.18743C1.46255 34.7502 0.875153 34.1621 0.875153 33.4373V9.81245C0.875188 9.08761 1.46257 8.50018 2.18743 8.50018H6.12489C6.12489 6.41166 6.9546 4.40856 8.43137 2.93172C9.9082 1.4549 11.9113 0.62527 13.9998 0.625244C16.0884 0.625244 18.0914 1.45487 19.5683 2.93172C21.0451 4.40857 21.8748 6.41161 21.8748 8.50018H25.8122Z" fill="#F4F4F4"/>
</svg>
