<svg width="38" height="35" viewBox="0 0 38 35" fill="none" xmlns="http://www.w3.org/2000/svg">
<path d="M34.5457 11.8715C34.5455 7.33263 31.0655 3.65282 26.773 3.65266C24.1458 3.65266 21.8214 5.0296 20.4126 7.14573C20.0889 7.63199 19.5613 7.92161 18.9989 7.92128C18.4366 7.92092 17.9099 7.6308 17.5867 7.14418C16.87 6.0651 15.9178 5.18476 14.8111 4.577C13.7044 3.96927 12.4755 3.65196 11.2284 3.65266H11.227C6.9345 3.65278 3.45446 7.3326 3.45435 11.8715C3.45435 16.1927 5.89713 20.5484 9.32411 24.2079C12.5133 27.6134 16.2997 30.1393 18.9996 31.2333C21.6996 30.1394 25.4865 27.6137 28.6759 24.2079C32.1029 20.5484 34.5457 16.1927 34.5457 11.8715ZM38 11.8715C38 17.5958 34.8287 22.8292 31.1307 26.7782C27.416 30.7449 22.873 33.7374 19.545 34.9068C19.1914 35.0311 18.8086 35.0311 18.455 34.9068C15.127 33.7374 10.5841 30.7449 6.86932 26.7782C3.17128 22.8292 0 17.5958 0 11.8715C0.000117106 5.31517 5.0266 0.000124346 11.227 1.46619e-06C13.0287 -0.000945861 14.8044 0.457183 16.4034 1.33525C17.3573 1.85913 18.231 2.52403 19.0011 3.30574C21.017 1.26049 23.756 1.46619e-06 26.773 1.46619e-06C32.9734 0.000169926 37.9999 5.3152 38 11.8715Z" fill="#F4F4F4"/>
</svg>
