<svg width="23" height="23" viewBox="0 0 23 23" fill="none" xmlns="http://www.w3.org/2000/svg">
<path d="M20.5892 19.1139L16.4359 14.9589C17.6812 13.3361 18.2626 11.3004 18.0621 9.26478C17.8617 7.22911 16.8944 5.34591 15.3565 3.99719C13.8187 2.64846 11.8254 1.93521 9.78094 2.00212C7.73652 2.06903 5.79411 2.91109 4.34771 4.35748C2.90132 5.80387 2.05926 7.74629 1.99235 9.7907C1.92544 11.8351 2.63869 13.8284 3.98742 15.3663C5.33614 16.9042 7.21935 17.8714 9.25501 18.0719C11.2907 18.2723 13.3264 17.6909 14.9491 16.4456L19.1059 20.6033C19.2035 20.7009 19.3194 20.7784 19.447 20.8312C19.5745 20.884 19.7112 20.9112 19.8493 20.9112C19.9873 20.9112 20.124 20.884 20.2516 20.8312C20.3791 20.7784 20.495 20.7009 20.5927 20.6033C20.6903 20.5057 20.7677 20.3898 20.8205 20.2622C20.8734 20.1347 20.9006 19.998 20.9006 19.8599C20.9006 19.7219 20.8734 19.5852 20.8205 19.4576C20.7677 19.3301 20.6903 19.2142 20.5927 19.1165L20.5892 19.1139ZM4.10462 10.0614C4.10462 8.88517 4.4534 7.73538 5.10687 6.75741C5.76033 5.77943 6.68913 5.01719 7.7758 4.56707C8.86247 4.11696 10.0582 3.99919 11.2118 4.22866C12.3654 4.45812 13.4251 5.02452 14.2568 5.85622C15.0885 6.68792 15.6549 7.74757 15.8843 8.90118C16.1138 10.0548 15.996 11.2505 15.5459 12.3372C15.0958 13.4239 14.3336 14.3527 13.3556 15.0061C12.3776 15.6596 11.2278 16.0084 10.0516 16.0084C8.47487 16.0067 6.96317 15.3797 5.84824 14.2647C4.73332 13.1498 4.10624 11.6381 4.10462 10.0614Z" fill="#2A56A7"/>
</svg>
